REM DIRINDEX 1\3,1\2\4,1\2\5,1\2\6
REM DIRNAME cjc137,folder01,folder02,folder03,folder04,folder05
TITLE ""
FILE "104.mp3" MP3
  TRACK 01 AUDIO
    TITLE "0:"
    INDEX 01 00:00:00
  TRACK 02 AUDIO
    TITLE "4:cjc137_4287"
    INDEX 01 00:00:03
  TRACK 03 AUDIO
    TITLE "0:"
    INDEX 01 00:01:15
  TRACK 04 AUDIO
    TITLE "6:cjc137_4288"
    INDEX 01 00:01:24
  TRACK 05 AUDIO
    TITLE "0:"
    INDEX 01 00:02:51
  TRACK 06 AUDIO
    TITLE "5:cjc137_4289"
    INDEX 01 00:02:63
  TRACK 07 AUDIO
    TITLE "0:"
    INDEX 01 00:03:72
  TRACK 08 AUDIO
    TITLE "4:cjc137_4290"
    INDEX 01 00:05:10
  TRACK 09 AUDIO
    TITLE "0:"
    INDEX 01 00:06:37
  TRACK 10 AUDIO
    TITLE "6:cjc137_4291"
    INDEX 01 00:06:41
  TRACK 11 AUDIO
    TITLE "0:"
    INDEX 01 00:07:66
  TRACK 12 AUDIO
    TITLE "5:cjc137_4292"
    INDEX 01 00:08:05
  TRACK 13 AUDIO
    TITLE "0:"
    INDEX 01 00:09:30
  TRACK 14 AUDIO
    TITLE "4:cjc137_4293"
    INDEX 01 00:10:37
  TRACK 15 AUDIO
    TITLE "0:"
    INDEX 01 00:11:60
  TRACK 16 AUDIO
    TITLE "6:cjc137_4294"
    INDEX 01 00:11:68
  TRACK 17 AUDIO
    TITLE "0:"
    INDEX 01 00:12:61
  TRACK 18 AUDIO
    TITLE "5:cjc137_4295"
    INDEX 01 00:12:63
  TRACK 19 AUDIO
    TITLE "0:"
    INDEX 01 00:14:13
  TRACK 20 AUDIO
    TITLE "4:cjc137_4296"
    INDEX 01 00:15:23
  TRACK 21 AUDIO
    TITLE "0:"
    INDEX 01 00:16:46
  TRACK 22 AUDIO
    TITLE "6:cjc137_4297"
    INDEX 01 00:16:53
  TRACK 23 AUDIO
    TITLE "0:"
    INDEX 01 00:17:69
  TRACK 24 AUDIO
    TITLE "5:cjc137_4298"
    INDEX 01 00:18:01
  TRACK 25 AUDIO
    TITLE "0:"
    INDEX 01 00:19:24
  TRACK 26 AUDIO
    TITLE "4:cjc137_4299"
    INDEX 01 00:20:34
  TRACK 27 AUDIO
    TITLE "0:"
    INDEX 01 00:21:60
  TRACK 28 AUDIO
    TITLE "6:cjc137_4300"
    INDEX 01 00:21:74
  TRACK 29 AUDIO
    TITLE "0:"
    INDEX 01 00:23:48
  TRACK 30 AUDIO
    TITLE "5:cjc137_4301"
    INDEX 01 00:23:51
  TRACK 31 AUDIO
    TITLE "0:"
    INDEX 01 00:25:03
  TRACK 32 AUDIO
    TITLE "4:cjc137_4302"
    INDEX 01 00:26:13
  TRACK 33 AUDIO
    TITLE "0:"
    INDEX 01 00:27:16
  TRACK 34 AUDIO
    TITLE "6:cjc137_4303"
    INDEX 01 00:27:20
  TRACK 35 AUDIO
    TITLE "0:"
    INDEX 01 00:28:21
  TRACK 36 AUDIO
    TITLE "5:cjc137_4304"
    INDEX 01 00:28:27
  TRACK 37 AUDIO
    TITLE "0:"
    INDEX 01 00:29:31
  TRACK 38 AUDIO
    TITLE "4:cjc137_4305"
    INDEX 01 00:30:36
  TRACK 39 AUDIO
    TITLE "0:"
    INDEX 01 00:31:63
  TRACK 40 AUDIO
    TITLE "6:cjc137_4306"
    INDEX 01 00:31:67
  TRACK 41 AUDIO
    TITLE "0:"
    INDEX 01 00:33:15
  TRACK 42 AUDIO
    TITLE "5:cjc137_4307"
    INDEX 01 00:33:17
  TRACK 43 AUDIO
    TITLE "0:"
    INDEX 01 00:34:45
  TRACK 44 AUDIO
    TITLE "4:cjc137_4308"
    INDEX 01 00:35:53
  TRACK 45 AUDIO
    TITLE "0:"
    INDEX 01 00:37:03
  TRACK 46 AUDIO
    TITLE "6:cjc137_4309"
    INDEX 01 00:37:10
  TRACK 47 AUDIO
    TITLE "0:"
    INDEX 01 00:38:31
  TRACK 48 AUDIO
    TITLE "5:cjc137_4310"
    INDEX 01 00:38:39
  TRACK 49 AUDIO
    TITLE "0:"
    INDEX 01 00:39:64
  TRACK 50 AUDIO
    TITLE "4:cjc137_4311"
    INDEX 01 00:40:73
  TRACK 51 AUDIO
    TITLE "0:"
    INDEX 01 00:42:06
  TRACK 52 AUDIO
    TITLE "6:cjc137_4312"
    INDEX 01 00:42:12
  TRACK 53 AUDIO
    TITLE "0:"
    INDEX 01 00:43:37
  TRACK 54 AUDIO
    TITLE "5:cjc137_4313"
    INDEX 01 00:43:40
  TRACK 55 AUDIO
    TITLE "0:"
    INDEX 01 00:44:48
  TRACK 56 AUDIO
    TITLE "4:cjc137_4314"
    INDEX 01 00:45:57
  TRACK 57 AUDIO
    TITLE "0:"
    INDEX 01 00:46:60
  TRACK 58 AUDIO
    TITLE "6:cjc137_4315"
    INDEX 01 00:46:74
  TRACK 59 AUDIO
    TITLE "0:"
    INDEX 01 00:47:66
  TRACK 60 AUDIO
    TITLE "5:cjc137_4316"
    INDEX 01 00:48:04
  TRACK 61 AUDIO
    TITLE "0:"
    INDEX 01 00:49:06
  TRACK 62 AUDIO
    TITLE "4:cjc137_4317"
    INDEX 01 00:50:21
  TRACK 63 AUDIO
    TITLE "0:"
    INDEX 01 00:51:28
  TRACK 64 AUDIO
    TITLE "6:cjc137_4318"
    INDEX 01 00:51:36
  TRACK 65 AUDIO
    TITLE "0:"
    INDEX 01 00:52:18
  TRACK 66 AUDIO
    TITLE "5:cjc137_4319"
    INDEX 01 00:52:28
  TRACK 67 AUDIO
    TITLE "0:"
    INDEX 01 00:53:33
  TRACK 68 AUDIO
    TITLE "4:cjc137_4320"
    INDEX 01 00:54:44
  TRACK 69 AUDIO
    TITLE "0:"
    INDEX 01 00:55:57
  TRACK 70 AUDIO
    TITLE "6:cjc137_4321"
    INDEX 01 00:55:61
  TRACK 71 AUDIO
    TITLE "0:"
    INDEX 01 00:56:63
  TRACK 72 AUDIO
    TITLE "5:cjc137_4322"
    INDEX 01 00:56:69
  TRACK 73 AUDIO
    TITLE "0:"
    INDEX 01 00:58:03
  TRACK 74 AUDIO
    TITLE "4:cjc137_4323"
    INDEX 01 00:59:12
  TRACK 75 AUDIO
    TITLE "0:"
    INDEX 01 01:00:15
  TRACK 76 AUDIO
    TITLE "6:cjc137_4324"
    INDEX 01 01:00:23
  TRACK 77 AUDIO
    TITLE "0:"
    INDEX 01 01:01:40
  TRACK 78 AUDIO
    TITLE "5:cjc137_4325"
    INDEX 01 01:01:44
  TRACK 79 AUDIO
    TITLE "0:"
    INDEX 01 01:02:48
  TRACK 80 AUDIO
    TITLE "4:cjc137_4326"
    INDEX 01 01:03:55
  TRACK 81 AUDIO
    TITLE "0:"
    INDEX 01 01:04:64
  TRACK 82 AUDIO
    TITLE "6:cjc137_4327"
    INDEX 01 01:04:74
  TRACK 83 AUDIO
    TITLE "0:"
    INDEX 01 01:05:66
  TRACK 84 AUDIO
    TITLE "5:cjc137_4328"
    INDEX 01 01:05:71
  TRACK 85 AUDIO
    TITLE "0:"
    INDEX 01 01:07:06
